<?xml version="1.0" encoding="UTF-8" standalone="no"?>
<!-- Uploaded to: SVG Repo, www.svgrepo.com, Generator: SVG Repo Mixer Tools -->

<svg
   width="531.40552"
   height="644.87067"
   viewBox="0 0 31.884331 38.69224"
   id="b"
   version="1.1"
   xmlns="http://www.w3.org/2000/svg"
   xmlns:svg="http://www.w3.org/2000/svg">
  <defs
     id="defs116">
    <style
       id="style114">.c{fill:none;stroke:#000000;stroke-linecap:round;stroke-linejoin:round;}</style>
  </defs>
  <path
     class="c"
     d="m 1.6553302,4.6345643 c 5.1684,-3.1364 17.4930998,-6.9354 29.7290998,-1.0267 -8.5695,2.0869 -16.2559,16.3110997 -4.2846,25.8085997 -17.0514,5.0359 -29.5968998,-10.5135 -25.4444998,-24.7818997 z"
     id="path118" />
  <path
     class="c"
     d="m 28.60183,33.524664 c -0.8736,1.5896 -1.3281,2.4253 -3.1285,3.467 -2.0745,1.2002 -6.7561,1.1785 -8.8564,1.1968 -6.1662,0.0538 -18.6059998,-0.3789 -15.67939977,-12.2839 4.36219997,7.8852 16.33349977,12.5014 27.66429977,7.6201 z"
     id="path120" />
  <path
     style="fill:#fd70ae;stroke:#000000;stroke-width:0"
     d="M 19.431399,29.816531 C 13.286099,29.443952 7.7748222,26.129676 4.4356942,20.798674 2.9414662,18.413102 1.9688102,15.714365 1.5471174,12.78401 1.4059668,11.803151 1.3754052,9.3294063 1.491105,8.2502703 1.5844236,7.3798893 1.8389226,5.9706753 2.0211462,5.3153257 2.1298772,4.9242853 2.1426872,4.9152451 3.6125672,4.1921923 5.5475462,3.2403511 8.0036932,2.3934751 10.351595,1.8685843 16.835194,0.41912698 23.286768,0.88113888 29.157263,3.2153005 c 0.330393,0.1313676 0.618657,0.2561934 0.640586,0.2773908 0.02193,0.021197 -0.18403,0.1409376 -0.457688,0.2660886 -1.759432,0.8046366 -3.387447,2.0100424 -4.71515,3.4911654 -2.273326,2.536016 -3.661068,5.4980047 -4.114459,8.7818827 -0.110814,0.802622 -0.09696,2.845966 0.02484,3.664842 0.495358,3.330154 2.11698,6.338125 4.786063,8.877738 l 0.636412,0.605542 -0.531412,0.119573 c -1.264997,0.284635 -2.373985,0.440179 -3.706621,0.519879 -1.031803,0.06171 -1.227307,0.06146 -2.288439,-0.0029 z"
     id="path544" />
  <path
     style="fill:#000000;stroke:#000000;stroke-width:0"
     d="M 19.259766,29.780889 C 13.348616,29.349425 8.0541802,26.214336 4.7330582,21.17893 3.1232122,18.738117 2.1131132,16.092446 1.5993444,12.971042 1.5127608,12.445 1.4957616,11.999021 1.4957616,10.25352 V 8.1653203 L 1.6835832,7.0943923 C 1.9250838,5.7173933 2.0657772,5.1731917 2.2237462,5.0050417 2.4506552,4.7635075 4.3618122,3.8373931 5.7007672,3.3201349 10.877844,1.3201553 16.670538,0.62293568 21.977287,1.3610623 c 2.408346,0.3349818 4.885521,0.977259 6.976802,1.808931 0.90485,0.3598464 0.910512,0.2857542 -0.05981,0.7827528 -1.507933,0.7723608 -2.617644,1.5832472 -3.780936,2.7628042 -2.422799,2.456673 -3.917047,5.3354157 -4.538772,8.7441687 -0.152481,0.83601 -0.210263,2.590936 -0.119508,3.629609 0.216576,2.478654 1.241745,5.091785 2.840196,7.239593 0.587445,0.789337 1.134812,1.409058 1.925279,2.17977 l 0.679786,0.662798 -0.731481,0.153595 c -0.907705,0.190597 -2.048836,0.355317 -3.008733,0.434306 -0.670648,0.05519 -2.275801,0.06708 -2.90034,0.0215 z"
     id="path617" />
  <path
     style="fill:#000000;stroke:#000000;stroke-width:0"
     d="M 13.510064,37.618035 C 9.8252162,37.460443 6.6087962,36.711689 4.6288262,35.550563 3.6973682,35.004322 2.7351252,34.138946 2.2274572,33.390936 1.3130832,32.043678 0.90586383,30.317243 1.0612236,28.446608 c 0.1007772,-1.213424 0.054582,-1.178219 0.5978616,-0.455621 2.348798,3.124058 5.814131,5.521824 9.9630168,6.893705 4.703589,1.555302 10.250708,1.542273 14.945905,-0.03511 0.367031,-0.123306 0.68875,-0.224193 0.714931,-0.224193 0.09761,0 -0.09679,0.258551 -0.546943,0.72744 -0.483649,0.50378 -1.210142,1.031098 -1.824532,1.324319 -1.027407,0.490337 -2.820679,0.794775 -5.422853,0.920621 -1.092317,0.05283 -4.914249,0.06578 -5.978546,0.02026 z"
     id="path619" />
  <path
     style="fill:#000000;stroke:#000000;stroke-width:0"
     d="M 18.630446,29.701228 C 14.450928,29.191734 10.768738,27.507264 7.8128122,24.752546 4.9421102,22.077252 2.9629652,18.688671 2.0176502,14.830398 1.5627984,12.973932 1.555065,12.897125 1.5539634,10.224915 l -9.9e-4,-2.4028597 0.212697,-1.060425 C 2.0556102,5.3160991 2.1208492,5.1291259 2.4080292,4.9206493 3.0144622,4.4804131 5.3161092,3.4643047 6.9800912,2.9022205 13.429381,0.72368578 20.113136,0.52645508 26.353927,2.3305189 c 1.629708,0.4711092 3.175208,1.0449936 3.175208,1.1790366 0,0.043388 -0.308717,0.241002 -0.686038,0.4391418 -1.717113,0.9016944 -3.00529,1.890524 -4.23055,3.247453 -2.011671,2.227847 -3.341756,4.8134697 -3.943042,7.6650847 -0.199678,0.946981 -0.265518,1.684903 -0.265518,2.97587 0,1.984033 0.308528,3.530779 1.063932,5.333813 0.797141,1.902652 1.836658,3.424961 3.475275,5.089327 0.472202,0.479621 0.846767,0.883821 0.832366,0.898222 -0.03806,0.03806 -1.799176,0.358032 -2.568236,0.466615 -0.768153,0.108454 -3.886283,0.160331 -4.576877,0.07615 z"
     id="path621" />
</svg>
